<?xml version="1.0" encoding="utf-8"?>
<svg viewBox="0 0 250 350" lang="en" role="graphics-symbol" tabindex="0" id="img-uah" xmlns="http://www.w3.org/2000/svg">
  <desc>Ukrainian Hryvnia Currency Symbol</desc>
  <title>UAH Symbol</title>
  <path style="paint-order: stroke; stroke-dasharray: 0, 0;" d="M 125 325 C 175 325 210 280 210 280 L 190 280 C 190 280 165 310 125 310 C 85 310 35 260 35 240 C 35 225 60 210 95 195 L 225 195 L 225 185.297 L 116.008 185.633 C 141.008 175.633 155 170 170 160 L 225 160 L 225 150 L 190 150 C 210 140 225 125 225 110 C 225 90 175 25 125 25 C 75 25 40 65 40 65 L 60 65 C 60 65 80 35 125 35 C 175 35 215 100 215 110 C 215 125 190 140 170 150 L 25 150 L 25 160 L 150 160 C 130 170 90 185 90 185 L 25 185 L 25 195 L 75 195 C 50 210 25 215 25 240 C 25 260 75 325 125 325 Z">
    <title>UA Hryvnia Currency Symbol</title>
  </path>
</svg>